# xmcd CD database file
#
# Track frame offsets:
#	150
#	31715
#	54755
#	72745
#	99584
#	125736
#	150759
#	174210
#	196338
#	220792
#	241023
#	272485
#	284064
#	312890
#
# Disc length: 4516 seconds
#
# Revision: 0
# Processed by: cddbd v1.5.2PL0 Copyright (c) Steve Scherf et al.
# Submitted via: CDex 1.51
#
DISCID=b911a20e
DTITLE=Joe Sample - 1999-2006 Best Of Best
DYEAR=2007
DGENRE=Jazz
TTITLE0=Put It Where You Want It
TTITLE1=Rio De Janeiro Blue
TTITLE2=Bitter Sweet
TTITLE3=Shotgun House Groove
TTITLE4=Street Life
TTITLE5=Lazy Sundays
TTITLE6=X Mark The Spot (Marie Laveau)
TTITLE7=Viva De Funk
TTITLE8=Greasy Spoon Part 2
TTITLE9=When The World Turns Blue
TTITLE10=Creepin'
TTITLE11=It's A Sin To Tell A Lie
TTITLE12=Way Back Home
TTITLE13=When Your Life Was Low
EXTD=YEAR: 2007
EXTT0=
EXTT1=
EXTT2=
EXTT3=
EXTT4=
EXTT5=
EXTT6=
EXTT7=
EXTT8=
EXTT9=
EXTT10=
EXTT11=
EXTT12=
EXTT13=
PLAYORDER=
